<svg width="19" height="18" viewBox="0 0 19 18" fill="none" xmlns="http://www.w3.org/2000/svg">
<path d="M10.3237 1.0668C10.3237 0.875598 10.3997 0.692229 10.5349 0.55703C10.6701 0.421832 10.8534 0.345878 11.0446 0.345878C12.956 0.347977 14.7884 1.10819 16.14 2.45972C17.4915 3.81125 18.2517 5.64372 18.2538 7.55508C18.2538 7.74628 18.1779 7.92964 18.0427 8.06484C17.9075 8.20004 17.7241 8.276 17.5329 8.276C17.3417 8.276 17.1583 8.20004 17.0231 8.06484C16.8879 7.92964 16.812 7.74628 16.812 7.55508C16.8103 6.026 16.2021 4.56005 15.1209 3.47883C14.0396 2.39762 12.5737 1.78943 11.0446 1.78772C10.8534 1.78772 10.6701 1.71176 10.5349 1.57656C10.3997 1.44137 10.3237 1.258 10.3237 1.0668ZM11.0446 4.6714C11.8094 4.6714 12.5429 4.97521 13.0837 5.51601C13.6245 6.0568 13.9283 6.79028 13.9283 7.55508C13.9283 7.74628 14.0043 7.92964 14.1395 8.06484C14.2747 8.20004 14.458 8.276 14.6492 8.276C14.8404 8.276 15.0238 8.20004 15.159 8.06484C15.2942 7.92964 15.3701 7.74628 15.3701 7.55508C15.369 6.40823 14.9129 5.30868 14.102 4.49774C13.291 3.68679 12.1915 3.2307 11.0446 3.22956C10.8534 3.22956 10.6701 3.30551 10.5349 3.44071C10.3997 3.57591 10.3237 3.75928 10.3237 3.95048C10.3237 4.14168 10.3997 4.32504 10.5349 4.46024C10.6701 4.59544 10.8534 4.6714 11.0446 4.6714ZM17.5999 12.4134C18.0177 12.8323 18.2523 13.3998 18.2523 13.9914C18.2523 14.5831 18.0177 15.1506 17.5999 15.5695L16.9439 16.3258C11.0396 21.9785 -3.32835 7.61419 2.23715 1.69111L3.06621 0.970194C3.48561 0.564084 4.04805 0.339425 4.63183 0.344822C5.21561 0.350218 5.7738 0.585236 6.18562 0.999031C6.20797 1.02138 7.54384 2.75663 7.54384 2.75663C7.94022 3.17306 8.16088 3.72622 8.15994 4.30113C8.159 4.87605 7.93653 5.42849 7.53879 5.84361L6.70397 6.89327C7.16597 8.01582 7.84523 9.03602 8.70272 9.89525C9.56022 10.7545 10.579 11.4358 11.7007 11.9001L12.7568 11.0602C13.172 10.6628 13.7243 10.4406 14.2991 10.4397C14.8738 10.4389 15.4268 10.6596 15.8431 11.0559C15.8431 11.0559 17.5776 12.391 17.5999 12.4134ZM16.608 13.4616C16.608 13.4616 14.8828 12.1344 14.8604 12.112C14.7119 11.9647 14.5112 11.8821 14.3021 11.8821C14.0929 11.8821 13.8923 11.9647 13.7437 12.112C13.7243 12.1322 12.2702 13.2907 12.2702 13.2907C12.1722 13.3687 12.0556 13.4198 11.9318 13.439C11.8081 13.4583 11.6814 13.4449 11.5644 13.4003C10.1114 12.8593 8.79156 12.0123 7.69439 10.9168C6.59722 9.82123 5.74832 8.50268 5.20517 7.05043C5.15702 6.93181 5.14131 6.8025 5.15969 6.6758C5.17806 6.5491 5.22984 6.42957 5.30971 6.32951C5.30971 6.32951 6.46823 4.8747 6.48769 4.85595C6.63495 4.70743 6.71758 4.50675 6.71758 4.2976C6.71758 4.08845 6.63495 3.88777 6.48769 3.73925C6.46534 3.71762 5.13813 1.99102 5.13813 1.99102C4.98738 1.85585 4.79065 1.78346 4.58825 1.78869C4.38584 1.79392 4.19311 1.87636 4.04954 2.01913L3.22048 2.74005C-0.846946 7.63077 11.6041 19.3911 15.8899 15.341L16.5467 14.584C16.7006 14.4415 16.793 14.2447 16.8045 14.0352C16.8159 13.8257 16.7454 13.62 16.608 13.4616Z" fill="#3C6BD3"/>
</svg>
