<svg width="18" height="18" viewBox="0 0 18 18" fill="none" xmlns="http://www.w3.org/2000/svg">
<path d="M8.80002 0.346191C7.08846 0.346191 5.41532 0.85373 3.99221 1.80463C2.56909 2.75552 1.45991 4.10707 0.804918 5.68835C0.149929 7.26963 -0.0214461 9.00963 0.312464 10.6883C0.646375 12.367 1.47057 13.909 2.68083 15.1192C3.8911 16.3295 5.43306 17.1537 7.11174 17.4876C8.79042 17.8215 10.5304 17.6501 12.1117 16.9951C13.693 16.3401 15.0445 15.231 15.9954 13.8078C16.9463 12.3847 17.4539 10.7116 17.4539 9.00003C17.4514 6.70565 16.5388 4.50596 14.9165 2.88358C13.2941 1.26121 11.0944 0.348673 8.80002 0.346191ZM8.80002 16.2116C7.37372 16.2116 5.97944 15.7886 4.79351 14.9962C3.60758 14.2038 2.68326 13.0775 2.13744 11.7598C1.59161 10.442 1.4488 8.99203 1.72706 7.59313C2.00532 6.19423 2.69215 4.90926 3.7007 3.90071C4.70925 2.89216 5.99422 2.20532 7.39312 1.92707C8.79202 1.64881 10.242 1.79162 11.5598 2.33744C12.8775 2.88327 14.0038 3.80759 14.7962 4.99352C15.5886 6.17945 16.0116 7.57373 16.0116 9.00003C16.0095 10.912 15.249 12.7451 13.897 14.097C12.5451 15.449 10.712 16.2095 8.80002 16.2116Z" fill="#3C6BD3"/>
<path d="M8.79998 4.6731C8.60871 4.6731 8.42529 4.74907 8.29004 4.88432C8.1548 5.01956 8.07882 5.20299 8.07882 5.39425V8.51324L5.64781 10.0363C5.48524 10.1379 5.36967 10.2999 5.32653 10.4866C5.28339 10.6734 5.31621 10.8697 5.41777 11.0322C5.51933 11.1948 5.68131 11.3104 5.86808 11.3535C6.05485 11.3967 6.25111 11.3638 6.41368 11.2623L9.18291 9.53151C9.28754 9.46595 9.37358 9.37463 9.4328 9.26629C9.49202 9.15795 9.52244 9.03622 9.52113 8.91276V5.39425C9.52113 5.20299 9.44515 5.01956 9.30991 4.88432C9.17467 4.74907 8.99124 4.6731 8.79998 4.6731Z" fill="#3C6BD3"/>
</svg>
