<svg width="16" height="19" viewBox="0 0 16 19" fill="none" xmlns="http://www.w3.org/2000/svg">
<path d="M14.75 3.5H12.425C12.2509 2.65356 11.7904 1.89301 11.1209 1.34654C10.4515 0.800068 9.61415 0.501091 8.75 0.5L7.25 0.5C6.38585 0.501091 5.54849 0.800068 4.87906 1.34654C4.20964 1.89301 3.74907 2.65356 3.575 3.5H1.25C1.05109 3.5 0.860322 3.57902 0.71967 3.71967C0.579018 3.86032 0.5 4.05109 0.5 4.25C0.5 4.44891 0.579018 4.63968 0.71967 4.78033C0.860322 4.92098 1.05109 5 1.25 5H2V14.75C2.00119 15.7442 2.39666 16.6973 3.09966 17.4003C3.80267 18.1033 4.7558 18.4988 5.75 18.5H10.25C11.2442 18.4988 12.1973 18.1033 12.9003 17.4003C13.6033 16.6973 13.9988 15.7442 14 14.75V5H14.75C14.9489 5 15.1397 4.92098 15.2803 4.78033C15.421 4.63968 15.5 4.44891 15.5 4.25C15.5 4.05109 15.421 3.86032 15.2803 3.71967C15.1397 3.57902 14.9489 3.5 14.75 3.5ZM7.25 2H8.75C9.21521 2.00057 9.66885 2.14503 10.0487 2.41358C10.4286 2.68213 10.7161 3.06162 10.8717 3.5H5.12825C5.28394 3.06162 5.57143 2.68213 5.95129 2.41358C6.33115 2.14503 6.78479 2.00057 7.25 2ZM12.5 14.75C12.5 15.3467 12.2629 15.919 11.841 16.341C11.419 16.7629 10.8467 17 10.25 17H5.75C5.15326 17 4.58097 16.7629 4.15901 16.341C3.73705 15.919 3.5 15.3467 3.5 14.75V5H12.5V14.75Z" fill="#374151"/>
<path d="M6.5 14C6.69891 14 6.88968 13.921 7.03033 13.7803C7.17098 13.6397 7.25 13.4489 7.25 13.25V8.75C7.25 8.55109 7.17098 8.36032 7.03033 8.21967C6.88968 8.07902 6.69891 8 6.5 8C6.30109 8 6.11032 8.07902 5.96967 8.21967C5.82902 8.36032 5.75 8.55109 5.75 8.75V13.25C5.75 13.4489 5.82902 13.6397 5.96967 13.7803C6.11032 13.921 6.30109 14 6.5 14ZM9.5 14C9.69891 14 9.88968 13.921 10.0303 13.7803C10.171 13.6397 10.25 13.4489 10.25 13.25V8.75C10.25 8.55109 10.171 8.36032 10.0303 8.21967C9.88968 8.07902 9.69891 8 9.5 8C9.30109 8 9.11032 8.07902 8.96967 8.21967C8.82902 8.36032 8.75 8.55109 8.75 8.75V13.25C8.75 13.4489 8.82902 13.6397 8.96967 13.7803C9.11032 13.921 9.30109 14 9.5 14Z" fill="#374151"/>
</svg>
