<svg width="18" height="17" viewBox="0 0 18 17" fill="none" xmlns="http://www.w3.org/2000/svg">
<path d="M16.5917 0.909068C16.1158 0.433886 15.4707 0.166992 14.7982 0.166992C14.1257 0.166992 13.4806 0.433886 13.0047 0.909068L1.61943 12.2944C1.29339 12.6186 1.03487 13.0042 0.858843 13.429C0.68281 13.8537 0.592753 14.3092 0.593883 14.769V16.2061C0.593883 16.3918 0.667636 16.5698 0.798917 16.7011C0.930198 16.8324 1.10825 16.9062 1.29391 16.9062H2.73107C3.19083 16.9074 3.64627 16.8175 4.07104 16.6416C4.49581 16.4657 4.88146 16.2073 5.20568 15.8813L16.5917 4.49532C17.0666 4.01944 17.3334 3.37455 17.3334 2.70219C17.3334 2.02984 17.0666 1.38495 16.5917 0.909068ZM4.21584 14.8915C3.82102 15.2837 3.28757 15.5045 2.73107 15.5061H1.99394V14.769C1.99323 14.4931 2.04725 14.2198 2.15288 13.9649C2.2585 13.7101 2.41362 13.4787 2.60927 13.2842L11.2497 4.64373L12.8598 6.2538L4.21584 14.8915ZM15.6011 3.50548L13.8468 5.26045L12.2368 3.65388L13.9918 1.89891C14.2053 1.68587 14.4947 1.56636 14.7963 1.56669C15.0979 1.56702 15.387 1.68715 15.6001 1.90066C15.8131 2.11417 15.9326 2.40356 15.9323 2.70518C15.932 3.0068 15.8118 3.29593 15.5983 3.50898L15.6011 3.50548Z" fill="#374151"/>
</svg>
