<svg width="18" height="17" viewBox="0 0 18 17" fill="none" xmlns="http://www.w3.org/2000/svg">
<path d="M2.70952 4.46794V1.58331C2.70952 1.20078 2.86147 0.833923 3.13196 0.563436C3.40245 0.292949 3.76931 0.140991 4.15183 0.140991H7.03647C7.22773 0.140991 7.41116 0.21697 7.5464 0.352214C7.68164 0.487457 7.75762 0.670886 7.75762 0.862149C7.75762 1.05341 7.68164 1.23684 7.5464 1.37209C7.41116 1.50733 7.22773 1.58331 7.03647 1.58331H5.18958L9.44874 5.85689C9.46356 5.87182 9.4812 5.88365 9.50064 5.8917C9.52008 5.89975 9.54092 5.90385 9.56196 5.90377C9.58284 5.90393 9.60354 5.89993 9.62286 5.89201C9.64217 5.88408 9.65971 5.87239 9.67446 5.85761L14.6389 0.893159C14.7749 0.761794 14.9571 0.689106 15.1462 0.690749C15.3353 0.692392 15.5161 0.768236 15.6498 0.901944C15.7836 1.03565 15.8594 1.21653 15.861 1.40561C15.8627 1.5947 15.79 1.77687 15.6586 1.91288L10.6942 6.87733C10.546 7.02663 10.3695 7.14496 10.1752 7.22543C9.98078 7.30591 9.77234 7.34692 9.56196 7.34608C9.35123 7.34659 9.14249 7.30522 8.94788 7.22438C8.75327 7.14354 8.57666 7.02483 8.4283 6.87517L4.15183 2.585V4.46794C4.15183 4.6592 4.07585 4.84263 3.94061 4.97788C3.80537 5.11312 3.62194 5.1891 3.43067 5.1891C3.23941 5.1891 3.05598 5.11312 2.92074 4.97788C2.7855 4.84263 2.70952 4.6592 2.70952 4.46794ZM17.8538 13.9202L17.7925 14.8317C17.782 15.3434 17.5708 15.8305 17.2046 16.1881C16.8384 16.5457 16.3464 16.7451 15.8346 16.7435C15.8029 16.7435 14.0158 16.5113 14.0158 16.5113C13.513 16.4972 13.0347 16.291 12.6793 15.9349C12.3239 15.5789 12.1186 15.1002 12.1055 14.5973L11.9937 13.6656C11.1024 13.3191 10.1562 13.1349 9.19994 13.1218C8.24612 13.1266 7.30148 13.3086 6.41411 13.6584L6.30088 14.5959C6.28812 15.0996 6.08241 15.5792 5.72625 15.9356C5.37008 16.2921 4.89065 16.4981 4.38693 16.5113C4.38693 16.5113 2.5999 16.7435 2.56817 16.7435C2.04779 16.7429 1.54891 16.5359 1.18101 16.1679C0.813118 15.7998 0.60628 15.3009 0.605898 14.7805L0.546042 13.9699C0.541639 13.4641 0.63867 12.9625 0.831403 12.4948C1.02414 12.0271 1.30866 11.6027 1.66816 11.2468C4.90689 8.01027 13.4952 8.01099 16.731 11.2468C17.0857 11.596 17.3676 12.0121 17.5604 12.471C17.7531 12.9299 17.8529 13.4224 17.8538 13.9202ZM16.4115 13.8697C16.3964 13.2646 16.1442 12.6896 15.7091 12.2687C12.8375 9.39489 5.16073 9.79586 2.68716 12.2687C2.46736 12.4839 2.29242 12.7405 2.17247 13.0237C2.05252 13.3069 1.98994 13.6111 1.98836 13.9187L2.04677 14.7315C2.03825 14.8705 2.08388 15.0074 2.1741 15.1134C2.26431 15.2195 2.39211 15.2866 2.53067 15.3005C2.53067 15.3005 4.30328 15.0697 4.33356 15.0697C4.47154 15.0693 4.60375 15.0143 4.70132 14.9168C4.79888 14.8192 4.85386 14.687 4.85424 14.549C4.85424 14.5202 5.0266 13.0706 5.0266 13.0706C5.04143 12.9469 5.0881 12.8291 5.16204 12.7287C5.23598 12.6284 5.33466 12.5489 5.44848 12.498C6.61307 11.9655 7.87754 11.6865 9.15811 11.6795H9.20355C10.4906 11.6983 11.7608 11.9749 12.9391 12.493C13.0556 12.5427 13.1568 12.6222 13.2328 12.7235C13.3087 12.8248 13.3567 12.9442 13.3718 13.0699C13.3718 13.0699 13.5442 14.5194 13.5442 14.5483C13.5446 14.6863 13.5996 14.8185 13.6971 14.916C13.7947 15.0136 13.9269 15.0686 14.0649 15.069C14.0966 15.069 15.8678 15.2997 15.8678 15.2997C15.9988 15.2901 16.1213 15.2313 16.2107 15.1351C16.3002 15.039 16.35 14.9126 16.3502 14.7812L16.4115 13.8697Z" fill="#3C6BD3"/>
</svg>
