<svg width="20" height="20" viewBox="0 0 18 18" fill="none" xmlns="http://www.w3.org/2000/svg">
<path d="M15.2428 11.0594C14.8264 10.6625 14.2729 10.4415 13.6977 10.4425C13.1224 10.4434 12.5697 10.6662 12.1546 11.0644L11.0987 11.9047C8.79225 10.926 7.15075 9.28087 6.09922 6.89435L6.93511 5.84426C7.33271 5.42891 7.555 4.87634 7.55581 4.30136C7.55661 3.72638 7.33587 3.17319 6.93944 2.75672C6.93944 2.75672 5.60374 1.02075 5.58138 0.998393C4.71159 0.127162 3.29368 0.127883 2.46067 0.964496L1.63199 1.68788C0.802589 2.51728 0.345337 3.63733 0.345337 4.84393C0.345337 10.3512 7.64839 17.6542 13.1556 17.6542C13.7485 17.6581 14.336 17.543 14.8837 17.316C15.4313 17.0889 15.9279 16.7544 16.3441 16.3322L17.0019 15.5749C17.4194 15.1559 17.6538 14.5885 17.6538 13.9969C17.6538 13.4054 17.4194 12.8379 17.0019 12.4189C16.9802 12.3965 15.2435 11.0608 15.2435 11.0608L15.2428 11.0594ZM15.9475 14.5905L15.2897 15.3478C14.7336 15.9045 13.9764 16.2111 13.1556 16.2111C8.83624 16.2111 1.78777 9.86072 1.78777 4.84321C1.78777 4.02246 2.09429 3.26446 2.61429 2.7423L3.44369 2.01747C3.58703 1.87425 3.77995 1.79161 3.98252 1.78665C4.18509 1.78168 4.38182 1.85477 4.53201 1.99079C4.53201 1.99079 5.86049 3.71667 5.88213 3.7383C5.95551 3.81164 6.01372 3.89872 6.05344 3.99456C6.09315 4.09041 6.11359 4.19314 6.11359 4.29689C6.11359 4.40063 6.09315 4.50336 6.05344 4.59921C6.01372 4.69505 5.95551 4.78213 5.88213 4.85547C5.86266 4.87494 4.70294 6.32964 4.70294 6.32964C4.62357 6.4293 4.57201 6.5482 4.55352 6.67425C4.53502 6.8003 4.55025 6.929 4.59764 7.04725C5.83309 10.1254 7.97366 12.2631 10.9595 13.4026C11.1961 13.4935 11.4658 13.4517 11.6656 13.2937C11.6656 13.2937 13.121 12.134 13.1397 12.1145C13.2902 11.9708 13.4903 11.8905 13.6983 11.8905C13.9064 11.8905 14.1065 11.9708 14.2569 12.1145C14.2786 12.1369 16.0059 13.4654 16.0059 13.4654C16.2857 13.7755 16.2756 14.2566 15.9446 14.5905H15.9475ZM17.0206 0.97892C16.8203 0.777221 16.582 0.617317 16.3194 0.50849C16.0568 0.399662 15.7752 0.34408 15.4909 0.344969H12.606C12.0324 0.346114 11.4827 0.574536 11.0771 0.980208C10.6716 1.38588 10.4433 1.93574 10.4424 2.50935V7.28453C10.4446 7.65596 10.6494 7.99349 10.979 8.16514C11.1196 8.23871 11.2718 8.27549 11.4269 8.27549C11.6353 8.27549 11.8495 8.20769 12.0471 8.06922L13.5811 6.83594H15.4902C16.6831 6.83594 17.6539 5.86518 17.6539 4.67228V2.50862C17.6539 1.93021 17.4281 1.38713 17.0199 0.978199L17.0206 0.97892ZM16.2121 4.67228C16.2121 5.06967 15.889 5.3935 15.4909 5.3935H13.3273C13.1628 5.3935 13.0032 5.44974 12.8751 5.55289L11.8856 6.34983V2.51007C11.8856 2.31891 11.9614 2.13558 12.0965 2.00034C12.2316 1.86511 12.4149 1.78904 12.606 1.78885H15.4909C15.5857 1.78866 15.6796 1.80718 15.7671 1.84336C15.8547 1.87954 15.9343 1.93266 16.0013 1.99966C16.0683 2.06667 16.1214 2.14626 16.1576 2.23384C16.1938 2.32143 16.2123 2.4153 16.2121 2.51007V4.67372V4.67228Z" fill="#3C6BD3"/>
</svg>
