<svg width="22" height="22" viewBox="0 0 22 22" fill="none" xmlns="http://www.w3.org/2000/svg">
<path d="M17.2428 13.0594C16.8264 12.6625 16.2729 12.4415 15.6977 12.4425C15.1224 12.4434 14.5697 12.6662 14.1546 13.0644L13.0987 13.9047C10.7922 12.926 9.15075 11.2809 8.09922 8.89435L8.93511 7.84426C9.33271 7.42891 9.555 6.87634 9.55581 6.30136C9.55661 5.72638 9.33587 5.17319 8.93944 4.75672C8.93944 4.75672 7.60374 3.02075 7.58138 2.99839C6.71159 2.12716 5.29368 2.12788 4.46067 2.9645L3.63199 3.68788C2.80259 4.51728 2.34534 5.63733 2.34534 6.84393C2.34534 12.3512 9.64839 19.6542 15.1556 19.6542C15.7485 19.6581 16.336 19.543 16.8837 19.316C17.4313 19.0889 17.9279 18.7544 18.3441 18.3322L19.0019 17.5749C19.4194 17.1559 19.6538 16.5885 19.6538 15.9969C19.6538 15.4054 19.4194 14.8379 19.0019 14.4189C18.9802 14.3965 17.2435 13.0608 17.2435 13.0608L17.2428 13.0594ZM17.9475 16.5905L17.2897 17.3478C16.7336 17.9045 15.9764 18.2111 15.1556 18.2111C10.8362 18.2111 3.78777 11.8607 3.78777 6.84321C3.78777 6.02246 4.09429 5.26446 4.61429 4.7423L5.44369 4.01747C5.58703 3.87425 5.77995 3.79161 5.98252 3.78665C6.18509 3.78168 6.38182 3.85477 6.53201 3.99079C6.53201 3.99079 7.86049 5.71667 7.88213 5.7383C7.95551 5.81164 8.01372 5.89872 8.05344 5.99456C8.09315 6.09041 8.11359 6.19314 8.11359 6.29689C8.11359 6.40063 8.09315 6.50336 8.05344 6.59921C8.01372 6.69505 7.95551 6.78213 7.88213 6.85547C7.86266 6.87494 6.70294 8.32964 6.70294 8.32964C6.62357 8.4293 6.57201 8.5482 6.55352 8.67425C6.53502 8.8003 6.55025 8.929 6.59764 9.04725C7.83309 12.1254 9.97366 14.2631 12.9595 15.4026C13.1961 15.4935 13.4658 15.4517 13.6656 15.2937C13.6656 15.2937 15.121 14.134 15.1397 14.1145C15.2902 13.9708 15.4903 13.8905 15.6983 13.8905C15.9064 13.8905 16.1065 13.9708 16.2569 14.1145C16.2786 14.1369 18.0059 15.4654 18.0059 15.4654C18.2857 15.7755 18.2756 16.2566 17.9446 16.5905H17.9475ZM19.0206 2.97892C18.8203 2.77722 18.582 2.61732 18.3194 2.50849C18.0568 2.39966 17.7752 2.34408 17.4909 2.34497H14.606C14.0324 2.34611 13.4827 2.57454 13.0771 2.98021C12.6716 3.38588 12.4433 3.93574 12.4424 4.50935V9.28453C12.4446 9.65596 12.6494 9.99349 12.979 10.1651C13.1196 10.2387 13.2718 10.2755 13.4269 10.2755C13.6353 10.2755 13.8495 10.2077 14.0471 10.0692L15.5811 8.83594H17.4902C18.6831 8.83594 19.6539 7.86518 19.6539 6.67228V4.50862C19.6539 3.93021 19.4281 3.38713 19.0199 2.9782L19.0206 2.97892ZM18.2121 6.67228C18.2121 7.06967 17.889 7.3935 17.4909 7.3935H15.3273C15.1628 7.3935 15.0032 7.44974 14.8751 7.55289L13.8856 8.34983V4.51007C13.8856 4.31891 13.9614 4.13558 14.0965 4.00034C14.2316 3.86511 14.4149 3.78904 14.606 3.78885H17.4909C17.5857 3.78866 17.6796 3.80718 17.7671 3.84336C17.8547 3.87954 17.9343 3.93266 18.0013 3.99966C18.0683 4.06667 18.1214 4.14626 18.1576 4.23384C18.1938 4.32143 18.2123 4.4153 18.2121 4.51007V6.67372V6.67228Z" fill="#3C6BD3"/>
</svg>
