<svg width="17" height="16" viewBox="0 0 17 16" fill="none" xmlns="http://www.w3.org/2000/svg">
<path d="M16.1885 7.99991C16.1885 10.8628 13.8591 13.1922 10.9962 13.1922H2.55869L4.04693 14.6805C4.16863 14.8022 4.237 14.9672 4.237 15.1393C4.237 15.3114 4.16863 15.4765 4.04693 15.5982C3.92523 15.7199 3.76017 15.7883 3.58806 15.7883C3.41595 15.7883 3.25089 15.7199 3.12919 15.5982L0.991909 13.4609C0.748716 13.2174 0.612118 12.8873 0.612118 12.5432C0.612118 12.199 0.748716 11.869 0.991909 11.6254L3.12919 9.48816C3.18945 9.4279 3.26099 9.3801 3.33972 9.34748C3.41846 9.31487 3.50284 9.29809 3.58806 9.29809C3.67328 9.29809 3.75767 9.31487 3.8364 9.34748C3.91513 9.3801 3.98667 9.4279 4.04693 9.48816C4.10719 9.54842 4.15499 9.61996 4.18761 9.69869C4.22022 9.77742 4.237 9.86181 4.237 9.94703C4.237 10.0322 4.22022 10.1166 4.18761 10.1954C4.15499 10.2741 4.10719 10.3456 4.04693 10.4059L2.55869 11.8941H10.9962C13.1439 11.8941 14.8904 10.1476 14.8904 7.99991C14.8904 7.82778 14.9588 7.66269 15.0805 7.54097C15.2022 7.41925 15.3673 7.35087 15.5395 7.35087C15.7116 7.35087 15.8767 7.41925 15.9984 7.54097C16.1201 7.66269 16.1885 7.82778 16.1885 7.99991ZM1.26061 8.64895C1.43275 8.64895 1.59783 8.58057 1.71955 8.45885C1.84127 8.33713 1.90965 8.17205 1.90965 7.99991C1.90965 5.85224 3.65621 4.10568 5.80388 4.10568H14.2414L12.7531 5.59393C12.6929 5.65419 12.6451 5.72572 12.6125 5.80446C12.5799 5.88319 12.5631 5.96758 12.5631 6.0528C12.5631 6.13802 12.5799 6.2224 12.6125 6.30114C12.6451 6.37987 12.6929 6.45141 12.7531 6.51167C12.8134 6.57193 12.8849 6.61973 12.9637 6.65234C13.0424 6.68495 13.1268 6.70174 13.212 6.70174C13.2972 6.70174 13.3816 6.68495 13.4603 6.65234C13.5391 6.61973 13.6106 6.57193 13.6709 6.51167L15.8082 4.37438C16.3144 3.86878 16.3144 3.0445 15.8082 2.5389L13.6709 0.401618C13.6106 0.341358 13.5391 0.293558 13.4603 0.260946C13.3816 0.228333 13.2972 0.211548 13.212 0.211548C13.1268 0.211548 13.0424 0.228333 12.9637 0.260946C12.8849 0.293558 12.8134 0.341358 12.7531 0.401618C12.6929 0.461878 12.6451 0.533416 12.6125 0.61215C12.5799 0.690883 12.5631 0.775268 12.5631 0.860488C12.5631 0.945708 12.5799 1.03009 12.6125 1.10883C12.6451 1.18756 12.6929 1.2591 12.7531 1.31936L14.2414 2.8076H5.80388C2.94097 2.8076 0.611572 5.137 0.611572 7.99991C0.611572 8.17205 0.679953 8.33713 0.801671 8.45885C0.92339 8.58057 1.08848 8.64895 1.26061 8.64895Z" fill="#3C6BD3"/>
</svg>
