<svg width="24" height="26" viewBox="0 0 24 26" fill="none" xmlns="http://www.w3.org/2000/svg">
<path fill-rule="evenodd" clip-rule="evenodd" d="M7.31241 23.2284C6.98388 23.2284 6.816 23.2013 6.52329 23.1588C6.29004 23.125 5.96454 22.9845 5.77811 22.9845C5.04434 22.9845 3.49149 24.357 4.61225 22.253C3.59961 21.5793 3.04389 19.6894 3.80119 18.399C4.01405 18.0364 4.25639 17.6627 4.58546 17.41C4.99247 17.0975 5.07784 16.9558 5.62839 16.739C9.91093 15.0521 12.9249 19.71 10.0276 22.2679C9.41499 22.8086 8.45201 23.2284 7.31241 23.2284ZM17.8677 21.7651H15.4743C14.3701 21.7651 13.5719 21.0179 13.5719 20.0581C13.5719 19.0732 13.4276 17.1711 13.7738 16.5397C14.3828 15.4298 15.7588 15.6075 16.9472 15.6075C20.0345 15.6075 19.7088 16.7219 19.7088 19.5704C19.7088 20.8082 18.9923 21.7651 17.8677 21.7651ZM10.1967 13.7786V10.5472C10.1967 9.86983 10.8013 9.5108 11.4854 9.5108H14.0628C14.7447 9.5108 15.3516 9.88169 15.3516 10.5472V13.7786C15.3516 14.3442 14.8742 14.7539 14.3083 14.7539H11.3626C10.7274 14.7539 10.1967 14.4273 10.1967 13.7786ZM7.18969 13.8394H6.94413C6.94413 14.3593 6.89981 14.3273 7.31241 14.3273V15.4247C6.62112 15.3674 6.02365 14.6124 6.02365 13.8394C6.02365 11.6797 9.33752 11.5913 9.33752 13.9005C9.33752 15.0974 7.86463 15.7629 7.86463 15.3027C7.86463 14.2157 7.76798 14.3273 8.29423 14.3273V13.8394C7.74154 13.8394 8.03608 13.863 7.86463 13.7786L7.93651 13.2925C8.3449 13.2884 8.29423 13.328 8.29423 12.7421C6.71945 12.7421 7.76661 13.8394 7.18969 13.8394ZM14.247 3.96281C14.3915 3.92934 14.4282 3.90593 14.6152 3.90191C14.2706 4.54873 14.2415 4.41687 14.1812 5.11686C14.1414 5.57947 13.9564 6.01179 13.7458 6.3305C13.5175 6.67595 13.2662 6.92261 12.9104 7.14642C12.2735 7.54694 11.68 7.61959 10.9678 7.46431C10.6571 7.39673 10.6371 7.31439 10.3808 7.25501V7.13307C10.6262 7.12776 10.7302 7.07984 10.9133 6.99148C11.1002 6.90147 11.2555 6.84765 11.424 6.76732C11.2955 6.59315 11.1938 6.61895 11.0064 6.45044C10.8449 6.30507 10.771 6.23767 10.7489 5.97478H10.9945C10.8727 5.80964 10.7742 5.82959 10.641 5.65524C10.4999 5.47038 10.5372 5.31812 10.4421 5.12122L10.8084 5.19145C10.503 4.69762 10.3708 4.87191 10.514 3.90355C10.6682 3.9454 11.4726 4.62733 12.2833 4.69443C12.2833 3.74897 12.8596 3.12313 13.8996 3.58184C14.1824 3.70667 14.2092 3.60161 14.4924 3.53604C14.4254 3.82211 14.3811 3.76385 14.247 3.96281ZM6.63729 0.975405C6.63729 1.346 6.93131 1.68779 7.21036 1.80843C8.44851 2.34364 8.23291 0.164871 8.23291 7.19411C8.23291 8.14825 6.95506 9.76879 6.34273 10.6814C6.15517 10.9608 5.98354 11.1954 5.80436 11.4878L0.941501 18.7891C0.00146246 20.2388 0.00128001 22.1009 0.978034 23.5464L1.40526 24.0977C1.53614 24.2456 1.74259 24.3928 1.90276 24.5178C3.48543 25.7537 5.69981 25.3622 7.80333 25.3622C9.09198 25.3622 10.3808 25.3622 11.6696 25.3622C11.6172 25.2186 11.3847 25.0421 11.2289 24.7636C10.2348 22.9866 12.5633 21.2634 14.0729 22.6087C14.1511 22.6782 14.4106 23.0229 14.4693 23.1293C15.1066 24.2842 14.0543 25.1652 14.0015 25.3622C15.5247 25.3622 19.5996 25.5209 20.6796 25.2293C22.3977 24.7652 23.7591 23.1688 23.7591 21.4603C23.7591 19.6713 23.3935 19.3515 22.5435 18.0344C22.3465 17.7293 22.1926 17.48 21.9917 17.1805L20.0969 14.3074C19.1667 12.8023 17.518 10.399 16.5169 8.90176C16.1339 8.32861 15.7812 7.78657 15.7812 6.82824V2.43865C15.7812 1.78835 16.0005 1.93543 16.5756 1.8832C16.9468 1.84944 17.2594 1.69032 17.3647 1.33478C17.5126 0.835575 17.3417 0.403065 17.0365 0.200445C16.8066 0.047699 16.4599 9.53674e-06 16.1493 9.53674e-06H7.92613C7.59129 9.53674e-06 7.23614 0.0611057 7.02767 0.204823C6.82325 0.345882 6.63729 0.660704 6.63729 0.975405Z" fill="white"/>
<path fill-rule="evenodd" clip-rule="evenodd" d="M16.579 17.0707C18.1694 17.0707 18.7337 18.8679 17.763 19.8322C16.7829 20.8059 15.1095 20.1529 15.0096 18.7573C14.9501 17.9258 15.7409 17.0707 16.579 17.0707ZM18.2359 16.7659C18.6913 16.7659 18.5099 17.1323 18.4814 17.2536C18.2809 17.2999 18.1559 17.3339 18.0431 17.1321C17.9558 16.9762 18.0041 16.7659 18.2359 16.7659ZM14.1243 17.3147V19.997C14.1243 20.6392 14.6076 21.2165 15.4129 21.2165H17.929C18.4725 21.2165 18.94 20.777 19.0604 20.3285C19.1441 20.0174 19.3066 17.2154 18.9235 16.6925C18.7436 16.4472 18.3986 16.2171 17.9905 16.2171H15.1061C14.7014 16.2171 14.1243 16.7013 14.1243 17.3147Z" fill="white"/>
<path fill-rule="evenodd" clip-rule="evenodd" d="M12.7741 11.5837C11.7985 11.503 11.6579 11.0192 11.3626 10.9131C11.225 11.1563 11.2955 11.6069 11.4854 11.8885C11.306 11.9311 11.3969 11.8806 11.3013 12.0104L11.5098 12.361C11.8208 12.7638 11.3235 12.5654 11.8376 12.8788C11.9815 12.9662 12.0499 13.0071 12.2218 13.0469C12.0714 13.2507 11.6575 13.3517 11.3013 13.3517V13.4737C11.8764 13.6067 11.5443 13.6565 12.3445 13.6565C13.2642 13.6565 14.0218 12.9734 14.2118 12.1585C14.3055 11.7573 14.216 11.4294 14.5539 11.3399C14.5286 11.0531 14.6451 11.19 14.3083 11.2179C14.4353 11.0294 14.4919 11.0824 14.5539 10.852C14.3853 10.891 14.3045 10.974 14.1856 10.974C14.083 10.974 13.4306 10.5253 13.0067 11.0222C12.8475 11.2089 12.8705 11.3842 12.7741 11.5837Z" fill="white"/>
<path fill-rule="evenodd" clip-rule="evenodd" d="M15.5972 18.6558C15.5972 19.3124 16.0874 19.7188 16.6482 19.7327C17.2216 19.7469 17.6835 19.2715 17.6835 18.6558C17.6835 17.3297 15.5972 17.3297 15.5972 18.6558Z" fill="white"/>
<path fill-rule="evenodd" clip-rule="evenodd" d="M7.86463 19.6922C7.86463 20.8519 9.58307 20.7631 9.58307 19.8142C9.58307 18.3605 7.86463 18.5447 7.86463 19.6922Z" fill="white"/>
<path fill-rule="evenodd" clip-rule="evenodd" d="M4.98035 19.5704C4.98035 20.1184 5.12164 20.5458 5.90085 20.5458C6.55495 20.5458 7.02344 19.6288 6.43523 19.0396C5.88099 18.4844 4.98035 18.9345 4.98035 19.5704Z" fill="white"/>
<path fill-rule="evenodd" clip-rule="evenodd" d="M11.6081 24.1428C12.0071 24.2352 12.0421 24.5684 12.4793 24.2769C12.6155 24.1858 12.6012 24.1727 12.7741 24.0819C12.7312 24.2648 12.6683 24.4293 12.6514 24.6305C12.8984 24.7949 13.1362 25.0264 13.5106 25.0573C13.5106 24.5275 13.8174 23.5291 13.8174 22.9235C13.5045 22.9494 12.8915 23.3294 12.6487 23.4696C12.147 23.7592 11.6947 23.8211 11.6081 24.1428Z" fill="white"/>
</svg>
