<svg width="114" height="26" viewBox="0 0 114 26" fill="none" xmlns="http://www.w3.org/2000/svg">
<path fill-rule="evenodd" clip-rule="evenodd" d="M7.31241 23.2284C6.98388 23.2284 6.816 23.2013 6.52329 23.1588C6.29004 23.125 5.96454 22.9845 5.77811 22.9845C5.04434 22.9845 3.49149 24.357 4.61225 22.253C3.59961 21.5793 3.04389 19.6894 3.80119 18.399C4.01405 18.0364 4.25639 17.6627 4.58546 17.41C4.99247 17.0975 5.07784 16.9558 5.62839 16.739C9.91093 15.0521 12.9249 19.71 10.0276 22.2679C9.41499 22.8086 8.45201 23.2284 7.31241 23.2284ZM17.8677 21.7651H15.4743C14.3701 21.7651 13.5719 21.0179 13.5719 20.0581C13.5719 19.0732 13.4276 17.1711 13.7738 16.5397C14.3828 15.4298 15.7588 15.6075 16.9472 15.6075C20.0345 15.6075 19.7088 16.7219 19.7088 19.5704C19.7088 20.8082 18.9923 21.7651 17.8677 21.7651ZM10.1967 13.7786V10.5472C10.1967 9.86983 10.8013 9.5108 11.4854 9.5108H14.0628C14.7447 9.5108 15.3516 9.88169 15.3516 10.5472V13.7786C15.3516 14.3442 14.8742 14.7539 14.3083 14.7539H11.3626C10.7274 14.7539 10.1967 14.4273 10.1967 13.7786ZM7.18969 13.8394H6.94413C6.94413 14.3593 6.89981 14.3273 7.31241 14.3273V15.4247C6.62112 15.3674 6.02365 14.6124 6.02365 13.8394C6.02365 11.6797 9.33752 11.5913 9.33752 13.9005C9.33752 15.0974 7.86463 15.7629 7.86463 15.3027C7.86463 14.2157 7.76798 14.3273 8.29423 14.3273V13.8394C7.74154 13.8394 8.03608 13.863 7.86463 13.7786L7.93651 13.2925C8.3449 13.2884 8.29423 13.328 8.29423 12.7421C6.71945 12.7421 7.76661 13.8394 7.18969 13.8394ZM14.247 3.96281C14.3915 3.92934 14.4282 3.90593 14.6152 3.90191C14.2706 4.54873 14.2415 4.41687 14.1812 5.11686C14.1414 5.57947 13.9564 6.01179 13.7458 6.3305C13.5175 6.67595 13.2662 6.92261 12.9104 7.14642C12.2735 7.54694 11.68 7.61959 10.9678 7.46431C10.6571 7.39673 10.6371 7.31439 10.3808 7.25501V7.13307C10.6262 7.12776 10.7302 7.07984 10.9133 6.99148C11.1002 6.90147 11.2555 6.84765 11.424 6.76732C11.2955 6.59315 11.1938 6.61895 11.0064 6.45044C10.8449 6.30507 10.771 6.23767 10.7489 5.97478H10.9945C10.8727 5.80964 10.7742 5.82959 10.641 5.65524C10.4999 5.47038 10.5372 5.31812 10.4421 5.12122L10.8084 5.19145C10.503 4.69762 10.3708 4.87191 10.514 3.90355C10.6682 3.9454 11.4726 4.62733 12.2833 4.69443C12.2833 3.74897 12.8596 3.12313 13.8996 3.58184C14.1824 3.70667 14.2092 3.60161 14.4924 3.53604C14.4254 3.82211 14.3811 3.76385 14.247 3.96281ZM6.63729 0.975405C6.63729 1.346 6.93131 1.68779 7.21036 1.80843C8.44851 2.34364 8.23291 0.164871 8.23291 7.19411C8.23291 8.14825 6.95506 9.76879 6.34273 10.6814C6.15517 10.9608 5.98354 11.1954 5.80436 11.4878L0.941501 18.7891C0.00146246 20.2388 0.00128001 22.1009 0.978034 23.5464L1.40526 24.0977C1.53614 24.2456 1.74259 24.3928 1.90276 24.5178C3.48543 25.7537 5.69981 25.3622 7.80333 25.3622C9.09198 25.3622 10.3808 25.3622 11.6696 25.3622C11.6172 25.2186 11.3847 25.0421 11.2289 24.7636C10.2348 22.9866 12.5633 21.2634 14.0729 22.6087C14.1511 22.6782 14.4106 23.0229 14.4693 23.1293C15.1066 24.2842 14.0543 25.1652 14.0015 25.3622C15.5247 25.3622 19.5996 25.5209 20.6796 25.2293C22.3977 24.7652 23.7591 23.1688 23.7591 21.4603C23.7591 19.6713 23.3935 19.3515 22.5435 18.0344C22.3465 17.7293 22.1926 17.48 21.9917 17.1805L20.0969 14.3074C19.1667 12.8023 17.518 10.399 16.5169 8.90176C16.1339 8.32861 15.7812 7.78657 15.7812 6.82824V2.43865C15.7812 1.78835 16.0005 1.93543 16.5756 1.8832C16.9468 1.84944 17.2594 1.69032 17.3647 1.33478C17.5126 0.835575 17.3417 0.403065 17.0365 0.200445C16.8066 0.047699 16.4599 9.53674e-06 16.1493 9.53674e-06H7.92613C7.59129 9.53674e-06 7.23614 0.0611057 7.02767 0.204823C6.82325 0.345882 6.63729 0.660704 6.63729 0.975405Z" fill="white"/>
<path fill-rule="evenodd" clip-rule="evenodd" d="M16.579 17.0707C18.1694 17.0707 18.7337 18.8679 17.763 19.8322C16.7829 20.8059 15.1095 20.1529 15.0096 18.7573C14.9501 17.9258 15.7409 17.0707 16.579 17.0707ZM18.2359 16.7659C18.6913 16.7659 18.5099 17.1323 18.4814 17.2536C18.2809 17.2999 18.1559 17.3339 18.0431 17.1321C17.9558 16.9762 18.0041 16.7659 18.2359 16.7659ZM14.1243 17.3147V19.997C14.1243 20.6392 14.6076 21.2165 15.4129 21.2165H17.929C18.4725 21.2165 18.94 20.777 19.0604 20.3285C19.1441 20.0174 19.3066 17.2154 18.9235 16.6925C18.7436 16.4472 18.3986 16.2171 17.9905 16.2171H15.1061C14.7014 16.2171 14.1243 16.7013 14.1243 17.3147Z" fill="white"/>
<path fill-rule="evenodd" clip-rule="evenodd" d="M12.7741 11.5837C11.7985 11.503 11.6579 11.0192 11.3626 10.9131C11.225 11.1563 11.2955 11.6069 11.4854 11.8885C11.306 11.9311 11.3969 11.8806 11.3013 12.0104L11.5098 12.361C11.8208 12.7638 11.3235 12.5654 11.8376 12.8788C11.9815 12.9662 12.0499 13.0071 12.2218 13.0469C12.0714 13.2507 11.6575 13.3517 11.3013 13.3517V13.4737C11.8764 13.6067 11.5443 13.6565 12.3445 13.6565C13.2642 13.6565 14.0218 12.9734 14.2118 12.1585C14.3055 11.7573 14.216 11.4294 14.5539 11.3399C14.5286 11.0531 14.6451 11.19 14.3083 11.2179C14.4353 11.0294 14.4919 11.0824 14.5539 10.852C14.3853 10.891 14.3045 10.974 14.1856 10.974C14.083 10.974 13.4306 10.5253 13.0067 11.0222C12.8475 11.2089 12.8705 11.3842 12.7741 11.5837Z" fill="white"/>
<path fill-rule="evenodd" clip-rule="evenodd" d="M15.5972 18.6558C15.5972 19.3124 16.0874 19.7188 16.6482 19.7327C17.2216 19.7469 17.6835 19.2715 17.6835 18.6558C17.6835 17.3297 15.5972 17.3297 15.5972 18.6558Z" fill="white"/>
<path fill-rule="evenodd" clip-rule="evenodd" d="M7.86463 19.6922C7.86463 20.8519 9.58307 20.7631 9.58307 19.8142C9.58307 18.3605 7.86463 18.5447 7.86463 19.6922Z" fill="white"/>
<path fill-rule="evenodd" clip-rule="evenodd" d="M4.98035 19.5704C4.98035 20.1184 5.12164 20.5458 5.90085 20.5458C6.55495 20.5458 7.02344 19.6288 6.43523 19.0396C5.88099 18.4844 4.98035 18.9345 4.98035 19.5704Z" fill="white"/>
<path fill-rule="evenodd" clip-rule="evenodd" d="M11.6081 24.1428C12.0071 24.2352 12.0421 24.5684 12.4793 24.2769C12.6155 24.1858 12.6012 24.1727 12.7741 24.0819C12.7312 24.2648 12.6683 24.4293 12.6514 24.6305C12.8984 24.7949 13.1362 25.0264 13.5106 25.0573C13.5106 24.5275 13.8174 23.5291 13.8174 22.9235C13.5045 22.9494 12.8915 23.3294 12.6487 23.4696C12.147 23.7592 11.6947 23.8211 11.6081 24.1428Z" fill="white"/>
<path d="M39.1419 15.3355C39.1419 15.0699 39.1002 14.8355 39.0169 14.6324C38.9388 14.4241 38.7981 14.2366 38.595 14.0699C38.3971 13.9032 38.1211 13.7444 37.7669 13.5933C37.4179 13.4423 36.9752 13.2887 36.4388 13.1324C35.8763 12.9657 35.3685 12.7808 34.9153 12.5777C34.4622 12.3694 34.0742 12.1324 33.7513 11.8668C33.4284 11.6012 33.181 11.2965 33.0091 10.9527C32.8372 10.609 32.7513 10.2157 32.7513 9.77303C32.7513 9.33032 32.8424 8.92146 33.0247 8.54646C33.207 8.17146 33.4674 7.84594 33.806 7.5699C34.1497 7.28865 34.5586 7.0699 35.0325 6.91365C35.5065 6.7574 36.0351 6.67928 36.6185 6.67928C37.4726 6.67928 38.1966 6.84334 38.7903 7.17146C39.3893 7.49438 39.845 7.91886 40.1575 8.4449C40.47 8.96573 40.6263 9.52303 40.6263 10.1168H39.1263C39.1263 9.68969 39.0351 9.31209 38.8528 8.98396C38.6705 8.65063 38.3945 8.39021 38.0247 8.20271C37.6549 8.01 37.1862 7.91365 36.6185 7.91365C36.082 7.91365 35.6393 7.99438 35.2903 8.15584C34.9414 8.3173 34.681 8.53605 34.5091 8.81209C34.3424 9.08813 34.2591 9.40323 34.2591 9.7574C34.2591 9.99698 34.3086 10.2157 34.4075 10.4137C34.5117 10.6064 34.6705 10.786 34.8841 10.9527C35.1028 11.1194 35.3789 11.273 35.7122 11.4137C36.0508 11.5543 36.4544 11.6897 36.9231 11.8199C37.569 12.0022 38.1263 12.2053 38.595 12.4293C39.0638 12.6532 39.4492 12.9058 39.7513 13.1871C40.0586 13.4631 40.2851 13.7782 40.431 14.1324C40.582 14.4814 40.6575 14.8772 40.6575 15.3199C40.6575 15.7834 40.5638 16.2027 40.3763 16.5777C40.1888 16.9527 39.9205 17.273 39.5716 17.5387C39.2226 17.8043 38.8034 18.01 38.3138 18.1558C37.8294 18.2965 37.2877 18.3668 36.6888 18.3668C36.1627 18.3668 35.6445 18.2939 35.1341 18.148C34.6289 18.0022 34.1679 17.7834 33.7513 17.4918C33.3398 17.2001 33.0091 16.8407 32.7591 16.4137C32.5143 15.9814 32.3919 15.4814 32.3919 14.9137H33.8919C33.8919 15.3043 33.9674 15.6402 34.1185 15.9215C34.2695 16.1975 34.4752 16.4267 34.7356 16.609C35.0013 16.7913 35.3008 16.9267 35.6341 17.0152C35.9726 17.0985 36.3242 17.1402 36.6888 17.1402C37.2148 17.1402 37.6601 17.0673 38.0247 16.9215C38.3893 16.7756 38.6653 16.5673 38.8528 16.2965C39.0455 16.0256 39.1419 15.7053 39.1419 15.3355ZM52.2972 12.1637V12.8824C52.2972 13.7366 52.1904 14.5022 51.9769 15.1793C51.7634 15.8564 51.4561 16.4319 51.055 16.9058C50.654 17.3798 50.1722 17.7418 49.6097 17.9918C49.0524 18.2418 48.4274 18.3668 47.7347 18.3668C47.0628 18.3668 46.4456 18.2418 45.8831 17.9918C45.3259 17.7418 44.8415 17.3798 44.43 16.9058C44.0238 16.4319 43.7087 15.8564 43.4847 15.1793C43.2608 14.5022 43.1488 13.7366 43.1488 12.8824V12.1637C43.1488 11.3095 43.2581 10.5465 43.4769 9.87459C43.7009 9.1975 44.016 8.62198 44.4222 8.14803C44.8285 7.66886 45.3102 7.30428 45.8675 7.05428C46.43 6.80428 47.0472 6.67928 47.7191 6.67928C48.4118 6.67928 49.0368 6.80428 49.5941 7.05428C50.1566 7.30428 50.6384 7.66886 51.0394 8.14803C51.4456 8.62198 51.7555 9.1975 51.9691 9.87459C52.1878 10.5465 52.2972 11.3095 52.2972 12.1637ZM50.805 12.8824V12.148C50.805 11.4709 50.7347 10.872 50.5941 10.3512C50.4587 9.83032 50.2581 9.39282 49.9925 9.03865C49.7269 8.68448 49.4014 8.41625 49.016 8.23396C48.6358 8.05167 48.2035 7.96053 47.7191 7.96053C47.2503 7.96053 46.8259 8.05167 46.4456 8.23396C46.0706 8.41625 45.7477 8.68448 45.4769 9.03865C45.2113 9.39282 45.0055 9.83032 44.8597 10.3512C44.7139 10.872 44.641 11.4709 44.641 12.148V12.8824C44.641 13.5647 44.7139 14.1689 44.8597 14.6949C45.0055 15.2157 45.2139 15.6558 45.4847 16.0152C45.7608 16.3694 46.0863 16.6376 46.4613 16.8199C46.8415 17.0022 47.266 17.0933 47.7347 17.0933C48.2243 17.0933 48.6592 17.0022 49.0394 16.8199C49.4196 16.6376 49.7399 16.3694 50.0003 16.0152C50.266 15.6558 50.4665 15.2157 50.6019 14.6949C50.7373 14.1689 50.805 13.5647 50.805 12.8824ZM62.3822 14.5933H63.8822C63.8041 15.3121 63.5984 15.9553 63.265 16.523C62.9317 17.0907 62.4603 17.5413 61.851 17.8746C61.2416 18.2027 60.4812 18.3668 59.5697 18.3668C58.903 18.3668 58.2963 18.2418 57.7494 17.9918C57.2077 17.7418 56.7416 17.3876 56.351 16.9293C55.9603 16.4657 55.6583 15.911 55.4447 15.2652C55.2364 14.6142 55.1322 13.8902 55.1322 13.0933V11.9605C55.1322 11.1637 55.2364 10.4423 55.4447 9.79646C55.6583 9.14542 55.9629 8.58813 56.3588 8.12459C56.7598 7.66105 57.2416 7.30428 57.8041 7.05428C58.3666 6.80428 58.9994 6.67928 59.7025 6.67928C60.5619 6.67928 61.2885 6.84073 61.8822 7.16365C62.476 7.48657 62.9369 7.93448 63.265 8.5074C63.5984 9.07511 63.8041 9.73396 63.8822 10.484H62.3822C62.3093 9.95271 62.1739 9.49698 61.976 9.11678C61.778 8.73136 61.4968 8.43448 61.1322 8.22615C60.7676 8.01782 60.2911 7.91365 59.7025 7.91365C59.1973 7.91365 58.752 8.01 58.3666 8.20271C57.9864 8.39542 57.6661 8.66886 57.4056 9.02303C57.1504 9.37719 56.9577 9.80167 56.8275 10.2965C56.6973 10.7913 56.6322 11.3407 56.6322 11.9449V13.0933C56.6322 13.6506 56.6895 14.1741 56.8041 14.6637C56.9239 15.1532 57.1036 15.5829 57.3431 15.9527C57.5827 16.3225 57.8874 16.6142 58.2572 16.8277C58.627 17.036 59.0645 17.1402 59.5697 17.1402C60.2103 17.1402 60.7208 17.0387 61.101 16.8355C61.4812 16.6324 61.7676 16.3407 61.9603 15.9605C62.1583 15.5803 62.2989 15.1246 62.3822 14.5933ZM68.5141 6.83553V18.2105H67.0063V6.83553H68.5141ZM76.5678 7.84334L72.8022 18.2105H71.2631L75.5991 6.83553H76.5913L76.5678 7.84334ZM79.7241 18.2105L75.9506 7.84334L75.9272 6.83553H76.9194L81.271 18.2105H79.7241ZM79.5288 13.9996V15.234H73.1381V13.9996H79.5288ZM90.6528 16.984V18.2105H84.9653V16.984H90.6528ZM85.2622 6.83553V18.2105H83.7544V6.83553H85.2622ZM97.7066 7.84334L93.941 18.2105H92.4019L96.7378 6.83553H97.73L97.7066 7.84334ZM100.863 18.2105L97.0894 7.84334L97.066 6.83553H98.0581L102.41 18.2105H100.863ZM100.668 13.9996V15.234H94.2769V13.9996H100.668ZM108.948 12.8902H106.065L106.049 11.6793H108.667C109.099 11.6793 109.476 11.6064 109.799 11.4605C110.122 11.3147 110.372 11.1064 110.549 10.8355C110.732 10.5595 110.823 10.2314 110.823 9.85115C110.823 9.43448 110.742 9.09594 110.581 8.83553C110.424 8.5699 110.182 8.37719 109.854 8.2574C109.531 8.1324 109.12 8.0699 108.62 8.0699H106.401V18.2105H104.893V6.83553H108.62C109.203 6.83553 109.724 6.89542 110.182 7.01521C110.641 7.1298 111.029 7.31209 111.346 7.56209C111.669 7.80688 111.914 8.11938 112.081 8.49959C112.247 8.8798 112.331 9.33553 112.331 9.86678C112.331 10.3355 112.211 10.76 111.971 11.1402C111.732 11.5152 111.398 11.8225 110.971 12.0621C110.549 12.3017 110.055 12.4553 109.487 12.523L108.948 12.8902ZM108.878 18.2105H105.471L106.323 16.984H108.878C109.357 16.984 109.763 16.9006 110.096 16.734C110.435 16.5673 110.693 16.3329 110.87 16.0308C111.047 15.7235 111.135 15.3616 111.135 14.9449C111.135 14.523 111.06 14.1584 110.909 13.8512C110.758 13.5439 110.521 13.3069 110.198 13.1402C109.875 12.9735 109.458 12.8902 108.948 12.8902H106.799L106.815 11.6793H109.753L110.073 12.1168C110.62 12.1637 111.083 12.3199 111.463 12.5855C111.844 12.8459 112.133 13.1793 112.331 13.5855C112.534 13.9918 112.635 14.4397 112.635 14.9293C112.635 15.6376 112.479 16.2366 112.167 16.7262C111.859 17.2105 111.424 17.5803 110.862 17.8355C110.299 18.0855 109.638 18.2105 108.878 18.2105Z" fill="white"/>
</svg>
